<svg width="51" height="51" viewBox="0 0 51 51" fill="none" xmlns="http://www.w3.org/2000/svg">
<g clip-path="url(#clip0_1_60)">
<path d="M47.2069 23.4068L47.0792 25.6402L47.0222 26.7707C46.9944 27.1388 46.8944 27.5055 46.825 27.8735L46.4292 30.093C46.2167 30.8138 45.9764 31.5207 45.7361 32.2416C44.7042 35.0541 43.2486 37.8374 41.2278 40.1555C39.2119 42.5105 36.8708 44.5663 34.275 46.261C31.6319 47.9568 28.9042 49.2707 25.7667 50.2318L25.2319 50.3999L24.6389 50.2027C22.5194 49.5096 20.7528 48.6763 18.943 47.6582C17.1764 46.6555 15.4667 45.5249 13.9264 44.1527L12.7667 43.136L11.6778 42.0332C10.943 41.3124 10.3069 40.493 9.65693 39.6874C8.40186 38.0377 7.33069 36.2558 6.46249 34.3735C5.61388 32.4943 4.92221 30.5291 4.51249 28.5221C4.41388 28.0138 4.25832 27.5193 4.20138 27.0096L4.01804 25.4971C3.91943 24.4791 3.74999 23.5041 3.80554 22.3318C3.89027 20.0846 4.58332 17.9221 5.62915 16.0707C6.67904 14.2569 8.01526 12.6247 9.5861 11.2374L14.3917 6.99712L12.0736 12.7943C11.2819 14.7874 10.9 17.1471 11.8055 18.6305C12.243 19.3652 13.0347 19.761 14.0097 19.7749C15.0278 19.7749 16.0583 19.493 16.6097 18.8138C17.175 18.1499 17.218 17.1041 16.8639 16.0999C16.4111 15.0541 15.9875 13.6416 16.0444 12.3555C16.0444 11.0416 16.4264 9.72629 17.0903 8.58185C17.768 7.4374 18.743 6.50407 19.8458 5.8124L21.2736 4.92212L20.8778 6.5749C20.468 8.27074 20.7653 10.0513 21.8958 11.1402C23.0125 12.2291 24.7792 12.6096 26.2055 12.243C27.6333 11.861 28.5944 10.7027 28.65 9.43046C28.7625 8.11657 28.0708 6.63185 27.1805 5.26101L24.0167 0.399902L29.4153 2.66101C30.9278 3.28324 32.425 3.98879 33.8389 4.97907C35.2375 5.96796 36.6222 7.2124 37.5694 8.85129C38.5583 10.4624 38.968 12.4402 38.9264 14.1791C38.9264 14.6166 38.8986 15.0416 38.8694 15.4652C38.8125 15.8888 38.7986 16.2291 38.7 16.7652C38.5305 17.7124 38.2764 18.418 38.0639 19.1388C37.6264 20.5235 37.343 21.9513 37.6542 22.6999C37.8375 23.4068 39.4486 23.9582 40.6361 23.8027C41.9083 23.6749 43.0944 22.7846 43.9292 21.6124C44.7625 20.4249 45.2014 18.9416 45.4278 17.4721L45.6111 16.3138L46.0208 17.3735C46.7833 19.2943 47.2208 21.3443 47.2069 23.4068Z" fill="#F4900C"/>
<path d="M46.5361 23.3207C46.5347 21.2888 46.6305 20.2346 45.8319 18.4318C45.2861 23.7429 41.3486 25.5763 37.7875 24.3068C34.4514 23.1166 36.7 18.4763 36.8653 16.261C37.1458 12.5068 36.8514 8.211 28.6444 4.63739C32.0542 10.0582 29.0389 13.4249 25.8764 13.6304C22.368 13.8582 19.1542 11.1249 20.3403 6.69017C16.5 9.04156 16.3875 12.9999 17.5722 15.5596C18.8083 18.2277 17.5222 20.4457 14.5083 20.6916C11.1389 20.9679 9.26805 17.6943 10.993 12.4791C8.00555 15.4013 5.88749 19.1971 6.20277 23.3193C7.64166 42.1152 25.2792 47.5249 25.2792 47.5249C25.2792 47.5249 46.5555 42.3068 46.5361 23.3207Z" fill="#FFCC4D"/>
<path d="M43.4653 27.4679C43.4653 24.8035 42.4069 22.2481 40.523 20.364C38.6391 18.4798 36.0839 17.4211 33.4195 17.4207C31.8222 17.4206 30.248 17.8021 28.828 18.5334C27.408 19.2647 26.1832 20.3246 25.2556 21.6249C24.3281 20.3248 23.1035 19.265 21.6837 18.5337C20.264 17.8025 18.6901 17.4209 17.0931 17.4207C14.4284 17.4207 11.8728 18.4793 9.9886 20.3635C8.10438 22.2477 7.04584 24.8032 7.04584 27.4679C7.04584 28.254 7.14584 29.0152 7.31667 29.7499C8.71112 38.4165 18.3486 47.561 25.2542 50.0721C32.1597 47.561 41.7972 38.4179 43.1903 29.7513C43.372 29.0037 43.4643 28.2372 43.4653 27.4679Z" fill="#DD2E44"/>
<path d="M34.2667 44.2235C34.2667 44.2235 36.2472 40.3777 36.0986 36.3832C36.0458 34.961 35.6444 33.5791 35.0764 32.2749C33.7458 29.2249 31.1792 21.5721 36.6694 17.468C36.6694 17.468 35.6208 19.2305 36.5514 22.4416C36.9194 23.7124 37.6083 24.8596 38.4264 25.8999C40.3153 28.3055 44.2861 34.9291 37.7542 41.1055L34.2667 44.2235ZM23.6292 49.4013C23.6292 49.4013 21.4333 47.2971 20.2667 44.3291C19.8514 43.2721 19.7028 42.1346 19.7028 40.9985C19.7014 38.3443 19.1347 31.9305 13.8111 30.6832C13.8111 30.6832 15.1403 31.6374 15.4847 34.2818C15.6208 35.3277 15.4833 36.3874 15.218 37.4082C14.6055 39.7707 13.868 45.6152 20.6153 48.0457L23.6292 49.4013Z" fill="#FFCC4D"/>
</g>
<defs>
<clipPath id="clip0_1_60">
<rect width="50" height="50" fill="white" transform="translate(0.5 0.399902)"/>
</clipPath>
</defs>
</svg>
